#!OML:ASF F:\VICON\USERDATA\INSTALL\rory3\rory3.ASF
:FULLY-SPECIFIED
:DEGREES
1588
root 3.88072 16.8349 -3.61385 22.2096 -37.1444 -2.36999
lowerback 27.8622 1.71736 -2.69547
upperback 9.78173 1.27591 2.02736
thorax -4.55449 0.402494 3.39865
lowerneck -16.2004 -3.62951 -10.7541
upperneck 22.7183 -3.83267 6.42329
head 10.2743 -1.96419 3.5631
rclavicle -6.12257e-014 -2.93207e-015
rhumerus -14.8544 16.2406 -83.2254
rradius 75.489
rwrist 20.2379
rhand -12.7204 -9.78416
rfingers 7.12502
rthumb 13.3627 -39.3357
lclavicle -6.12257e-014 -2.93207e-015
lhumerus -17.6322 -27.1733 86.8876
lradius 67.0431
lwrist 13.8199
lhand -19.7249 21.5184
lfingers 7.12502
lthumb 6.60539 51.3954
rfemur -57.5869 -4.70541 16.1936
rtibia 45.8353
rfoot -16.9845 -11.6801
rtoes 0.41326
lfemur -56.2253 6.92444 -20.1932
ltibia 45.6114
lfoot -6.44203 0.455497
ltoes -9.33141
1589
root 3.9214 16.8369 -3.62902 21.8969 -37.2716 -2.29429
lowerback 27.3979 1.2815 -3.41938
upperback 9.65562 0.589166 2.34797
thorax -4.42203 0.0591837 4.38215
lowerneck -16.1824 -3.15987 -11.9924
upperneck 22.8166 -2.83443 6.35262
head 10.2324 -1.62909 3.88559
rclavicle -1.78906e-015 2.77056e-015
rhumerus -13.8082 17.3925 -82.9345
rradius 74.9395
rwrist 18.9135
rhand -12.5454 -10.4168
rfingers 7.12502
rthumb 13.5314 -39.9572
lclavicle -1.78906e-015 2.77056e-015
lhumerus -17.1654 -24.4006 87.0225
lradius 66.3082
lwrist 15.7387
lhand -18.6499 22.6433
lfingers 7.12502
lthumb 7.64309 52.4852
rfemur -57.3964 -5.01837 16.2933
rtibia 46.9074
rfoot -16.9125 -11.4817
rtoes 0.90192
lfemur -55.9792 6.90114 -20.3233
ltibia 45.4955
lfoot -6.32148 0.451393
ltoes -10.701
1590
root 3.95865 16.8543 -3.62915 21.4408 -37.659 -2.43972
lowerback 27.1566 1.32395 -3.47705
upperback 9.67373 0.62938 2.29936
thorax -4.29119 0.0743733 4.34713
lowerneck -16.2541 -3.12689 -12.0769
upperneck 22.8242 -2.72713 6.2359
head 10.2386 -1.60031 3.87193
rclavicle -6.0033e-014 2.61402e-014
rhumerus -12.9042 16.7753 -82.9102
rradius 74.2985
rwrist 17.7416
rhand -13.4093 -10.3744
rfingers 7.12502
rthumb 12.6986 -39.9683
lclavicle -6.0033e-014 2.61402e-014
lhumerus -16.1161 -23.7389 86.7486
lradius 65.3633
lwrist 17.528
lhand -17.9228 23.7387
lfingers 7.12502
lthumb 8.34487 53.5539
rfemur -56.8193 -5.10605 16.4678
rtibia 48.0243
rfoot -16.7253 -10.8229
rtoes 0.807903
lfemur -55.2886 7.06366 -20.2806
ltibia 45.3315
lfoot -6.28344 0.652916
ltoes -11.3299
1591
root 3.99401 16.8616 -3.64571 21.0669 -37.8529 -2.5161
lowerback 26.9308 1.2652 -3.60008
upperback 9.60471 0.53415 2.289
thorax -4.25076 0.0284175 4.43371
lowerneck -16.1704 -3.03963 -12.2145
upperneck 22.6967 -2.54897 6.12749
head 10.1601 -1.54178 3.87679
rclavicle 7.7526e-015 3.66261e-014
rhumerus -11.9822 16.4106 -83.0181
rradius 73.5257
rwrist 16.2802
rhand -14.9913 -9.77707
rfingers 7.12502
rthumb 11.1732 -39.4596
lclavicle 7.7526e-015 3.66261e-014
lhumerus -15.0392 -23.1246 86.4267
lradius 64.3826
lwrist 19.2322
lhand -17.7988 24.8323
lfingers 7.12502
lthumb 8.46455 54.6427
rfemur -56.4071 -5.28846 16.6548
rtibia 49.2291
rfoot -16.6191 -10.0911
rtoes 0.347652
lfemur -54.8194 7.17339 -20.2595
ltibia 45.1367
lfoot -6.12792 0.71746
ltoes -11.0449
1592
root 4.02804 16.8712 -3.66068 20.6017 -38.0237 -2.49899
lowerback 26.7787 1.59498 -3.1384
upperback 9.55041 1.04076 1.843
thorax -4.28076 0.291012 3.52258
lowerneck -16.0206 -3.36793 -10.9322
upperneck 22.4837 -3.30857 5.91747
head 10.1017 -1.79859 3.47836
rclavicle -7.29788e-014 3.30107e-014
rhumerus -11.4443 14.1545 -83.5741
rradius 72.917
rwrist 14.7178
rhand -16.4932 -9.63945
rfingers 7.12502
rthumb 9.72432 -39.395
lclavicle -7.29788e-014 3.30107e-014
lhumerus -13.5133 -24.6923 85.5491
lradius 63.4583
lwrist 21.5162
lhand -17.503 26.1571
lfingers 7.12502
lthumb 8.74992 55.9557
rfemur -55.9129 -5.52221 16.7767
rtibia 50.4728
rfoot -16.4443 -9.33456
rtoes -0.49825
lfemur -54.2687 7.19108 -20.2842
ltibia 44.8927
lfoot -5.96422 0.836241
ltoes -11.1833
1593
root 4.06117 16.8867 -3.67089 20.082 -38.2053 -2.47515
lowerback 26.6564 1.71297 -3.0762
upperback 9.48243 1.20269 1.71584
thorax -4.30848 0.375185 3.29866
lowerneck -15.9197 -3.42453 -10.4833
upperneck 22.2606 -3.4397 5.63375
head 10.0009 -1.84939 3.27967
rclavicle 3.27995e-014 -1.46883e-014
rhumerus -10.6783 13.3386 -83.714
rradius 72.2741
rwrist 13.2244
rhand -17.7418 -9.81617
rfingers 7.12502
rthumb 8.5195 -39.6243
lclavicle 3.27995e-014 -1.46883e-014
lhumerus -12.3308 -24.7917 85.1764
lradius 62.5163
lwrist 23.1695
lhand -16.8688 27.4847
lfingers 7.12502
lthumb 9.36189 57.2568
rfemur -55.323 -5.75575 16.8856
rtibia 51.8175
rfoot -16.4385 -8.55369
rtoes -0.724466
lfemur -53.6286 7.2048 -20.3239
ltibia 44.6324
lfoot -5.85257 0.939915
ltoes -11.396
1594
root 4.09372 16.8972 -3.69752 19.7934 -38.1913 -2.53293
lowerback 26.3743 1.60731 -3.02341
upperback 9.38804 1.09259 1.65253
thorax -4.26766 0.327389 3.23148
lowerneck -15.8972 -3.33422 -10.1067
upperneck 22.0272 -3.30511 5.21353
head 9.88713 -1.79951 3.08103
rclavicle 4.01545e-014 2.98674e-014
rhumerus -9.72595 13.1209 -83.8895
rradius 71.619
rwrist 12.0262
rhand -18.7863 -9.42307
rfingers 7.12502
rthumb 7.51147 -39.2697
lclavicle 4.01545e-014 2.98674e-014
lhumerus -11.2762 -24.3533 84.7996
lradius 61.632
lwrist 24.4242
lhand -17.705 28.8057
lfingers 7.12502
lthumb 8.55508 58.6124
rfemur -54.9118 -6.09073 17.1775
rtibia 53.1929
rfoot -16.4641 -7.95601
rtoes -0.802227
lfemur -53.2616 7.23293 -20.2911
ltibia 44.3333
lfoot -5.71769 0.943711
ltoes -10.7625
1595
root 4.12547 16.894 -3.74469 19.9476 -37.8199 -2.5882
lowerback 25.8554 1.40276 -3.04125
upperback 9.11299 0.869039 1.73931
thorax -4.30545 0.230856 3.4016
lowerneck -15.8834 -3.25171 -9.95844
upperneck 21.8153 -3.16865 4.98302
head 9.79138 -1.74699 2.98949
rclavicle 2.33572e-015 3.62285e-014
rhumerus -8.94621 13.1503 -83.955
rradius 71.1507
rwrist 10.8518
rhand -19.7087 -8.82105
rfingers 7.12502
rthumb 6.621 -38.6975
lclavicle 2.33572e-015 3.62285e-014
lhumerus -10.3935 -24.0314 84.6337
lradius 60.8606
lwrist 26.1497
lhand -19.9762 29.8965
lfingers 7.12502
lthumb 6.36278 59.7809
rfemur -55.0068 -6.56224 17.5942
rtibia 54.6158
rfoot -16.4412 -7.81016
rtoes -1.69998
lfemur -53.524 7.07622 -20.2279
ltibia 44.0167
lfoot -5.41719 0.880149
ltoes -10.113
1596
root 4.15308 16.9075 -3.77524 19.5703 -37.7215 -2.61158
lowerback 25.7004 1.3257 -3.09175
upperback 9.02787 0.770381 1.7573
thorax -4.31679 0.186032 3.4785
lowerneck -15.9173 -3.25531 -10.2152
upperneck 21.6286 -3.15975 5.24315
head 9.73945 -1.73147 3.12295
rclavicle -3.89121e-014 2.18663e-014
rhumerus -8.11929 13.1156 -84.0587
rradius 70.7616
rwrist 9.99808
rhand -20.7159 -8.80443
rfingers 7.12502
rthumb 5.64865 -38.7091
lclavicle -3.89121e-014 2.18663e-014
lhumerus -9.41877 -23.8596 84.4242
lradius 60.2177
lwrist 28.1433
lhand -20.3439 31.5539
lfingers 7.12502
lthumb 6.00777 61.4487
rfemur -54.3939 -6.84753 17.8584
rtibia 55.9359
rfoot -16.5108 -7.84509
rtoes -3.27483
lfemur -53.0276 6.95874 -20.1206
ltibia 43.6352
lfoot -5.14744 0.949728
ltoes -10.0246
1597
root 4.17879 16.9227 -3.8112 19.244 -37.6466 -2.64322
lowerback 25.4706 1.18861 -3.231
upperback 8.95085 0.577854 1.79006
thorax -4.27455 0.0933411 3.6488
lowerneck -15.9324 -3.20033 -10.61
upperneck 21.4166 -3.02112 5.44856
head 9.66585 -1.6733 3.27668
rclavicle 5.76476e-015 5.01931e-014
rhumerus -7.23238 13.2829 -84.3482
rradius 70.2952
rwrist 9.69401
rhand -21.8228 -8.63344
rfingers 7.12502
rthumb 4.57991 -38.5639
lclavicle 5.76476e-015 5.01931e-014
lhumerus -8.50748 -23.1193 84.216
lradius 59.617
lwrist 29.5527
lhand -21.0287 33.531
lfingers 7.12502
lthumb 5.34661 63.4436
rfemur -53.787 -7.11129 18.1612
rtibia 57.1902
rfoot -16.9175 -7.9905
rtoes -3.29032
lfemur -52.5632 6.89382 -20.0121
ltibia 43.1936
lfoot -4.80768 0.90525
ltoes -9.75257
1598
root 4.20267 16.9522 -3.82509 18.8064 -37.8586 -2.73348
lowerback 25.1269 1.05203 -3.38794
upperback 8.95225 0.379291 1.79449
thorax -4.08805 -0.00848468 3.79745
lowerneck -15.8938 -3.06098 -10.936
upperneck 21.1333 -2.73401 5.42656
head 9.53929 -1.56487 3.35628
rclavicle -7.2954e-014 8.84592e-015
rhumerus -6.44829 13.7561 -84.7146
rradius 69.9219
rwrist 9.61625
rhand -22.8179 -8.23653
rfingers 7.12502
rthumb 3.61891 -38.1856
lclavicle -7.2954e-014 8.84592e-015
lhumerus -7.82571 -21.8871 84.2664
lradius 59.0036
lwrist 30.5217
lhand -21.6104 34.4922
lfingers 7.12502
lthumb 4.78501 64.4182
rfemur -52.868 -7.26042 18.3792
rtibia 58.2865
rfoot -17.3618 -8.0502
rtoes -2.35362
lfemur -51.7413 6.85326 -19.8573
ltibia 42.6594
lfoot -4.57882 1.18412
ltoes -9.27041
1599
root 4.22649 16.9816 -3.84691 18.3753 -37.9364 -2.77745
lowerback 24.8904 0.999305 -3.45514
upperback 8.90205 0.306079 1.77801
thorax -4.02108 -0.0438741 3.83654
lowerneck -15.8888 -3.04419 -11.0158
upperneck 20.9046 -2.67185 5.37537
head 9.45372 -1.54326 3.35562
rclavicle -5.24792e-014 -3.97569e-015
rhumerus -5.76364 13.9295 -84.9692
rradius 69.6863
rwrist 9.42127
rhand -23.6237 -7.98672
rfingers 7.12502
rthumb 2.84079 -37.9475
lclavicle -5.24792e-014 -3.97569e-015
lhumerus -6.98122 -21.5301 83.9532
lradius 58.5841
lwrist 32.5255
lhand -22.2683 35.1568
lfingers 7.12502
lthumb 4.14973 65.0961
rfemur -51.924 -7.46182 18.6057
rtibia 59.3342
rfoot -17.6778 -8.28975
rtoes -2.27773
lfemur -50.9882 6.76814 -19.7288
ltibia 42.0683
lfoot -4.33818 1.45379
ltoes -7.49496
1600
root 4.25038 17.0042 -3.87828 18.0304 -37.8282 -2.80645
lowerback 24.7156 0.966317 -3.48888
upperback 8.77496 0.27022 1.80519
thorax -4.07187 -0.0558032 3.8946
lowerneck -15.8083 -3.06379 -11.0216
upperneck 20.6711 -2.694 5.34702
head 9.3592 -1.55287 3.34002
rclavicle -3.77691e-015 3.18055e-014
rhumerus -5.15979 13.9362 -85.1691
rradius 69.4756
rwrist 9.10985
rhand -24.4976 -7.83177
rfingers 7.12502
rthumb 1.99675 -37.8022
lclavicle -3.77691e-015 3.18055e-014
lhumerus -6.19394 -21.3608 83.8187
lradius 58.2428
lwrist 34.7687
lhand -22.3447 35.9973
lfingers 7.12502
lthumb 4.07596 65.9381
rfemur -51.0565 -7.76602 18.8843
rtibia 60.3331
rfoot -18.0194 -8.62111
rtoes -1.81364
lfemur -50.4034 6.59375 -19.6009
ltibia 41.4365
lfoot -3.97006 1.6087
ltoes -6.30791
1601
root 4.27178 17.0257 -3.9148 17.7716 -37.7318 -2.78245
lowerback 24.4658 0.914002 -3.67806
upperback 8.59589 0.182204 1.87696
thorax -4.13653 -0.0930008 4.10472
lowerneck -15.7595 -3.04286 -11.2074
upperneck 20.5111 -2.62062 5.35373
head 9.2915 -1.52993 3.38008
rclavicle -7.03698e-014 4.1546e-014
rhumerus -4.61328 14.235 -85.3865
rradius 69.2882
rwrist 8.48357
rhand -25.874 -7.6341
rfingers 7.12502
rthumb 0.667397 -37.6128
lclavicle -7.03698e-014 4.1546e-014
lhumerus -5.50629 -20.9637 83.8111
lradius 58.0236
lwrist 37.2617
lhand -22.3632 37.0803
lfingers 7.12502
lthumb 4.05801 67.0214
rfemur -50.3442 -8.03975 19.1215
rtibia 61.3135
rfoot -18.4787 -9.08959
rtoes -1.25747
lfemur -49.9373 6.39633 -19.5067
ltibia 40.7924
lfoot -3.60639 1.70273
ltoes -6.76765
1602
root 4.2899 17.0496 -3.95223 17.5509 -37.7147 -2.79752
lowerback 24.1381 0.916414 -3.80752
upperback 8.4624 0.176069 1.90259
thorax -4.12007 -0.092192 4.20605
lowerneck -15.8745 -3.07621 -11.3457
upperneck 20.4782 -2.62375 5.38917
head 9.30473 -1.53613 3.41411
rclavicle -3.22031e-014 4.39314e-014
rhumerus -3.99004 14.466 -85.685
rradius 69.0429
rwrist 7.6742
rhand -27.5397 -7.23217
rfingers 7.12502
rthumb -0.941351 -37.2098
lclavicle -3.22031e-014 4.39314e-014
lhumerus -4.72664 -20.7147 83.8003
lradius 57.7811
lwrist 40.2405
lhand -22.928 37.5966
lfingers 7.12502
lthumb 3.51264 67.5474
rfemur -49.5765 -8.18968 19.3649
rtibia 62.1951
rfoot -18.9753 -9.4273
rtoes -0.60479
lfemur -49.4646 6.27418 -19.3693
ltibia 40.1612
lfoot -3.20026 1.70022
ltoes -6.72224
